<?xml version="1.0" encoding="UTF-8"?>
<svg id="Layer_2" data-name="Layer 2" xmlns="http://www.w3.org/2000/svg" viewBox="0 0 463.51 36.67">
  <g id="Layer_1-2" data-name="Layer 1">
    <path d="M0,35.83V0h35.27c7.24,0,12.58.71,16.01,2.13,3.43,1.42,5.15,3.88,5.15,7.39,0,2.24-.74,3.96-2.21,5.15-1.47,1.19-3.58,2.02-6.33,2.49-2.74.47-6.04.76-9.88.87l.45-.45c2.8,0,5.39.08,7.78.22,2.39.15,4.48.49,6.27,1.01,1.79.52,3.19,1.33,4.2,2.41,1.01,1.08,1.51,2.58,1.51,4.48,0,2.31-.82,4.22-2.46,5.71-1.64,1.49-3.97,2.6-7,3.33-3.02.73-6.59,1.09-10.69,1.09H0ZM13.99,15.23h21.72c1.98,0,3.41-.19,4.28-.56.88-.37,1.32-.97,1.32-1.79s-.44-1.46-1.32-1.82c-.88-.35-2.3-.53-4.28-.53H13.99v4.7ZM13.99,25.3h24.07c1.98,0,3.41-.19,4.28-.56.88-.37,1.32-.97,1.32-1.79,0-.56-.2-1.01-.59-1.34s-1-.59-1.82-.76c-.82-.17-1.88-.25-3.19-.25H13.99v4.7Z"/>
    <path d="M100.37,21.66l.11,2.69c-.11.78-.48,1.7-1.09,2.74-.62,1.05-1.47,2.13-2.55,3.25-1.08,1.12-2.41,2.15-3.97,3.11-1.57.95-3.36,1.73-5.37,2.32-2.02.6-4.25.9-6.72.9s-4.8-.25-7-.76c-2.2-.5-4.16-1.33-5.88-2.49-1.72-1.16-3.06-2.72-4.03-4.67-.97-1.96-1.46-4.41-1.46-7.36v-12.99h13.43v11.59c0,2.05.34,3.64,1.04,4.76.69,1.12,1.78,1.89,3.28,2.32,1.49.43,3.41.64,5.77.64,2.2,0,4.24-.33,6.13-.98,1.88-.65,3.55-1.45,4.98-2.38,1.44-.93,2.55-1.83,3.33-2.69ZM113.25,35.83h-13.43V8.4h13.43v27.43Z"/>
    <path d="M116.88,8.4h32.92v8.4h-32.92v-8.4ZM126.62,0h13.43v35.83h-13.43V0Z"/>
    <path d="M191.28,25.97h13.21c-.34,2.16-1.41,4.05-3.22,5.65-1.81,1.61-4.44,2.85-7.89,3.72-3.45.88-7.85,1.32-13.18,1.32-5.64,0-10.5-.45-14.58-1.34s-7.23-2.41-9.43-4.53c-2.2-2.13-3.3-5-3.3-8.62s1.07-6.45,3.22-8.59c2.15-2.15,5.25-3.69,9.32-4.62,4.07-.93,8.99-1.4,14.78-1.4s10.32.5,13.94,1.51c3.62,1.01,6.29,2.64,8,4.9,1.72,2.26,2.54,5.31,2.46,9.15h-38.07c.19.97.72,1.87,1.6,2.69.88.82,2.24,1.48,4.09,1.99s4.32.76,7.42.76,5.85-.22,7.92-.67c2.07-.45,3.31-1.08,3.72-1.9ZM179.63,15.67c-3.96,0-6.97.43-9.04,1.29-2.07.86-3.29,1.72-3.67,2.58h24.63c-.26-.97-1.31-1.86-3.13-2.66-1.83-.8-4.76-1.2-8.79-1.2Z"/>
    <path d="M266.91,0v10.64h-42.43v4.76h34.71v9.52h-34.71v10.92h-13.99V0h56.43Z"/>
    <path d="M294.33,36.67c-5.93,0-10.87-.49-14.81-1.46-3.94-.97-6.89-2.52-8.84-4.65-1.96-2.13-2.94-4.93-2.94-8.4s.98-6.28,2.94-8.42c1.96-2.15,4.91-3.71,8.84-4.7,3.94-.99,8.87-1.48,14.81-1.48s10.79.5,14.69,1.48c3.9.99,6.82,2.56,8.76,4.7,1.94,2.15,2.91,4.95,2.91,8.42s-.97,6.27-2.91,8.4c-1.94,2.13-4.86,3.68-8.76,4.65-3.9.97-8.8,1.46-14.69,1.46ZM294.33,28.55c2.76,0,5.07-.23,6.94-.7,1.87-.47,3.28-1.18,4.25-2.13.97-.95,1.46-2.14,1.46-3.55s-.48-2.61-1.43-3.58c-.95-.97-2.36-1.7-4.23-2.18-1.87-.48-4.2-.73-7-.73s-5.1.24-7.03.73c-1.92.49-3.38,1.2-4.37,2.16-.99.95-1.48,2.16-1.48,3.61s.48,2.6,1.46,3.55c.97.95,2.42,1.66,4.34,2.13,1.92.47,4.28.7,7.08.7Z"/>
    <path d="M325.18,8.4h13.43v27.43h-13.43V8.4ZM353.06,18.75c-2.43,0-4.65.22-6.66.67-2.02.45-3.73.98-5.15,1.6-1.42.62-2.48,1.22-3.19,1.82l-.11-2.69c.11-.78.41-1.71.9-2.77.48-1.06,1.14-2.16,1.96-3.3.82-1.14,1.83-2.2,3.02-3.19,1.19-.99,2.57-1.79,4.11-2.41,1.55-.62,3.26-.92,5.12-.92v11.2Z"/>
    <path d="M407.86,23.9c0,2.69-.84,4.98-2.52,6.89s-4.33,3.36-7.95,4.37c-3.62,1.01-8.32,1.51-14.11,1.51s-10.7-.47-14.75-1.4c-4.05-.93-7.13-2.46-9.24-4.59-2.11-2.13-3.16-4.96-3.16-8.51s1.05-6.39,3.16-8.54c2.11-2.15,5.19-3.69,9.24-4.65,4.05-.95,8.97-1.43,14.75-1.43s10.47.5,14.05,1.51c3.58,1.01,6.21,2.46,7.89,4.37,1.68,1.9,2.54,4.18,2.57,6.83h-12.32c-.6-1.46-1.94-2.58-4.03-3.39-2.09-.8-4.81-1.2-8.17-1.2-2.72,0-5.09.2-7.11.59-2.02.39-3.57,1.06-4.67,1.99-1.1.93-1.65,2.24-1.65,3.92s.54,2.93,1.62,3.86c1.08.93,2.63,1.59,4.65,1.96,2.02.37,4.4.56,7.17.56,3.36,0,6.09-.4,8.2-1.2,2.11-.8,3.46-1.95,4.06-3.44h12.32Z"/>
    <path d="M450.18,25.97h13.21c-.34,2.16-1.41,4.05-3.22,5.65-1.81,1.61-4.44,2.85-7.89,3.72-3.45.88-7.85,1.32-13.18,1.32-5.64,0-10.5-.45-14.58-1.34s-7.23-2.41-9.43-4.53c-2.2-2.13-3.3-5-3.3-8.62s1.07-6.45,3.22-8.59c2.15-2.15,5.25-3.69,9.32-4.62,4.07-.93,8.99-1.4,14.78-1.4s10.32.5,13.94,1.51c3.62,1.01,6.29,2.64,8,4.9,1.72,2.26,2.54,5.31,2.46,9.15h-38.07c.19.97.72,1.87,1.6,2.69.88.82,2.24,1.48,4.09,1.99s4.32.76,7.42.76,5.85-.22,7.92-.67c2.07-.45,3.31-1.08,3.72-1.9ZM438.53,15.67c-3.96,0-6.97.43-9.04,1.29-2.07.86-3.29,1.72-3.67,2.58h24.63c-.26-.97-1.31-1.86-3.13-2.66-1.83-.8-4.76-1.2-8.79-1.2Z"/>
  </g>
</svg>